<?xml version='1.0' encoding='iso-8859-1'?>
<!DOCTYPE svg PUBLIC '-//W3C//DTD SVG 1.1//EN' 'http://www.w3.org/Graphics/SVG/1.1/DTD/svg11.dtd'>
<svg version="1.1" xmlns="http://www.w3.org/2000/svg" viewBox="0 0 512 512" xmlns:xlink="http://www.w3.org/1999/xlink" enable-background="new 0 0 512 512">
  <g>
    <path d="m480,32h-448c-17.673,0-32,14.326-32,32v32c0,17.673 14.327,32 32,32h448c17.673,0 32-14.327 32-32v-32c0-17.674-14.327-32-32-32z"/>
    <path d="M32.001,448.005C32,465.675,46.325,480,63.995,480h384.011c17.67,0,31.994-14.324,31.994-31.994v-0.001V160H32.001V448.005   z M192,224h128c8.837,0,16,7.163,16,16c0,8.836-7.163,16-16,16H192c-8.837,0-16-7.164-16-16C176,231.163,183.163,224,192,224z"/>
  </g>
</svg>
