<?xml version="1.0" encoding="iso-8859-1"?>
<!-- Generator: Adobe Illustrator 18.0.0, SVG Export Plug-In . SVG Version: 6.00 Build 0)  -->
<!DOCTYPE svg PUBLIC "-//W3C//DTD SVG 1.1//EN" "http://www.w3.org/Graphics/SVG/1.1/DTD/svg11.dtd">
<svg version="1.1" id="Capa_1" xmlns="http://www.w3.org/2000/svg" xmlns:xlink="http://www.w3.org/1999/xlink" x="0px" y="0px"
	 viewBox="0 0 221.985 221.985" style="enable-background:new 0 0 221.985 221.985;" xml:space="preserve">
<g>
	<path d="M221.544,85.313c-1.059-3.258-3.875-5.633-7.266-6.125l-65.792-9.561l-29.424-59.618c-1.516-3.071-4.645-5.017-8.07-5.017
		s-6.555,1.945-8.07,5.017L73.498,69.627L7.706,79.188c-3.391,0.492-6.207,2.867-7.266,6.125s-0.176,6.835,2.277,9.226
		l47.608,46.406l-11.238,65.526c-0.579,3.377,0.809,6.789,3.58,8.803c2.772,2.015,6.445,2.278,9.479,0.685l58.846-30.937
		l58.846,30.937c1.317,0.692,2.755,1.034,4.188,1.034c1.866,0,3.723-0.58,5.291-1.719c2.771-2.014,4.159-5.426,3.58-8.803
		l-11.238-65.526l47.608-46.406C221.72,92.148,222.603,88.571,221.544,85.313z M155.706,131.359
		c-2.121,2.067-3.089,5.046-2.588,7.966l8.955,52.216l-46.893-24.652c-1.312-0.689-2.75-1.034-4.188-1.034s-2.877,0.345-4.188,1.034
		L59.911,191.54l8.955-52.216c0.501-2.92-0.467-5.898-2.588-7.966l-37.938-36.98l52.428-7.618c2.932-0.426,5.466-2.267,6.776-4.923
		l23.447-47.509l23.447,47.509c1.311,2.656,3.845,4.497,6.776,4.923l52.428,7.618L155.706,131.359z"/>
</g>
<g>
</g>
<g>
</g>
<g>
</g>
<g>
</g>
<g>
</g>
<g>
</g>
<g>
</g>
<g>
</g>
<g>
</g>
<g>
</g>
<g>
</g>
<g>
</g>
<g>
</g>
<g>
</g>
<g>
</g>
</svg>
