<svg id="visual" viewBox="0 0 900 600" width="900" height="600" xmlns="http://www.w3.org/2000/svg" xmlns:xlink="http://www.w3.org/1999/xlink" version="1.1"><rect x="0" y="0" width="900" height="600" fill="#ebf495"></rect><path d="M0 525L25 521.5C50 518 100 511 150 503.8C200 496.7 250 489.3 300 491.5C350 493.7 400 505.3 450 507.3C500 509.3 550 501.7 600 503.2C650 504.7 700 515.3 750 515.3C800 515.3 850 504.7 875 499.3L900 494L900 601L875 601C850 601 800 601 750 601C700 601 650 601 600 601C550 601 500 601 450 601C400 601 350 601 300 601C250 601 200 601 150 601C100 601 50 601 25 601L0 601Z" fill="#3083ff" stroke-linecap="round" stroke-linejoin="miter"></path></svg>