<svg id="visual" viewBox="0 0 960 540" width="960" height="540" xmlns="http://www.w3.org/2000/svg" xmlns:xlink="http://www.w3.org/1999/xlink" version="1.1"><rect x="0" y="0" width="960" height="540" fill="#001220"></rect><path d="M0 391L22.8 385.5C45.7 380 91.3 369 137 358.5C182.7 348 228.3 338 274 340.7C319.7 343.3 365.3 358.7 411.2 363C457 367.3 503 360.7 548.8 358.5C594.7 356.3 640.3 358.7 686 358.2C731.7 357.7 777.3 354.3 823 355.2C868.7 356 914.3 361 937.2 363.5L960 366L960 541L937.2 541C914.3 541 868.7 541 823 541C777.3 541 731.7 541 686 541C640.3 541 594.7 541 548.8 541C503 541 457 541 411.2 541C365.3 541 319.7 541 274 541C228.3 541 182.7 541 137 541C91.3 541 45.7 541 22.8 541L0 541Z" fill="#4f1410"></path><path d="M0 411L22.8 402.5C45.7 394 91.3 377 137 379C182.7 381 228.3 402 274 410.8C319.7 419.7 365.3 416.3 411.2 412.8C457 409.3 503 405.7 548.8 401.7C594.7 397.7 640.3 393.3 686 388.7C731.7 384 777.3 379 823 381.2C868.7 383.3 914.3 392.7 937.2 397.3L960 402L960 541L937.2 541C914.3 541 868.7 541 823 541C777.3 541 731.7 541 686 541C640.3 541 594.7 541 548.8 541C503 541 457 541 411.2 541C365.3 541 319.7 541 274 541C228.3 541 182.7 541 137 541C91.3 541 45.7 541 22.8 541L0 541Z" fill="#9d334d"></path><path d="M0 446L22.8 446.3C45.7 446.7 91.3 447.3 137 449.7C182.7 452 228.3 456 274 455.3C319.7 454.7 365.3 449.3 411.2 441C457 432.7 503 421.3 548.8 422.8C594.7 424.3 640.3 438.7 686 445.2C731.7 451.7 777.3 450.3 823 444.2C868.7 438 914.3 427 937.2 421.5L960 416L960 541L937.2 541C914.3 541 868.7 541 823 541C777.3 541 731.7 541 686 541C640.3 541 594.7 541 548.8 541C503 541 457 541 411.2 541C365.3 541 319.7 541 274 541C228.3 541 182.7 541 137 541C91.3 541 45.7 541 22.8 541L0 541Z" fill="#ca4a7f"></path><path d="M0 463L22.8 460.8C45.7 458.7 91.3 454.3 137 455.8C182.7 457.3 228.3 464.7 274 469C319.7 473.3 365.3 474.7 411.2 472.2C457 469.7 503 463.3 548.8 464.3C594.7 465.3 640.3 473.7 686 471.7C731.7 469.7 777.3 457.3 823 450.3C868.7 443.3 914.3 441.7 937.2 440.8L960 440L960 541L937.2 541C914.3 541 868.7 541 823 541C777.3 541 731.7 541 686 541C640.3 541 594.7 541 548.8 541C503 541 457 541 411.2 541C365.3 541 319.7 541 274 541C228.3 541 182.7 541 137 541C91.3 541 45.7 541 22.8 541L0 541Z" fill="#9d334d"></path><path d="M0 483L22.8 482.5C45.7 482 91.3 481 137 485C182.7 489 228.3 498 274 504C319.7 510 365.3 513 411.2 510.7C457 508.3 503 500.7 548.8 499C594.7 497.3 640.3 501.7 686 504.2C731.7 506.7 777.3 507.3 823 505.8C868.7 504.3 914.3 500.7 937.2 498.8L960 497L960 541L937.2 541C914.3 541 868.7 541 823 541C777.3 541 731.7 541 686 541C640.3 541 594.7 541 548.8 541C503 541 457 541 411.2 541C365.3 541 319.7 541 274 541C228.3 541 182.7 541 137 541C91.3 541 45.7 541 22.8 541L0 541Z" fill="#4f1410"></path></svg>