<?xml version="1.0" encoding="utf-8"?>

<!DOCTYPE svg PUBLIC "-//W3C//DTD SVG 1.1//EN" "http://www.w3.org/Graphics/SVG/1.1/DTD/svg11.dtd">
<svg version="1.1" id="Layer_1" xmlns="http://www.w3.org/2000/svg" xmlns:xlink="http://www.w3.org/1999/xlink" x="0px" y="0px"
	 viewBox="0 0 1526.045 1664.656" enable-background="new 0 0 1526.045 1664.656" xml:space="preserve">
<path d="M1494.377,1013.782c-0.311-109.898-47.583-207.996-97.65-302.371c-65.51-123.483-173.759-213.356-288.117-288.352
	c-83.586-54.812-178.187-22.072-215.738,75.138l0.003,0.005c-12.2,31.583-31.232,58.118-38.558,91.26
	c-11.145,50.415-24.198,101.147-36.423,152.153c-1.025-6.149-0.228-12.893,2.522-20.859c-23.609-15.213,13.459-35.438-3.299-52.114
	c-3.167-17.39,2.165-37.813,5.148-53.362c-4.317-20.116,7.605-38.576,2.431-52.641c-6.794-18.471,10.336-32.953-8.202-47.63
	c1.985-20.756,11.834-32.381,0.046-52.642c13.778-17.48-6.355-39.825,1.88-55.343c10.46-19.709-7.796-30.82-0.588-48.191
	c19.911-14.959,5.441-34.771,6.335-54.257c0.852-18.573,9.177-36.871-5.825-54.272c2.786-16.725,26.67-25.982,29.916-44.096
	c9.173-51.188,31.475-126.528,18.263-166.313c-5.431-16.355-45.863-1.019-68.795-1.529c-23.904,13.066-45.727,12.094-66.015,0.75
	c-22.932,0.51-63.363-14.827-68.795,1.529c-13.212,39.783,9.09,115.121,18.263,166.313c3.246,18.114,27.13,27.371,29.916,44.096
	c-15.002,17.401-6.677,35.698-5.825,54.272c0.894,19.487-13.576,39.298,6.335,54.257c7.208,17.371-22.423,33.463-0.588,48.191
	c-3.14,20.499-11.898,37.863,1.88,55.343c-11.788,20.262-1.94,31.886,0.046,52.642c-18.538,14.676-1.408,29.158-8.202,47.63
	c-5.173,14.065,6.748,32.524,2.431,52.641c2.983,15.549,8.315,35.974,5.148,53.362c-16.759,16.677,20.309,36.902-3.299,52.114
	c3.706,10.734,3.87,19.253,0.795,27.081c-12.697-53.355-26.436-106.414-38.089-159.125c-7.327-33.142-26.358-59.676-38.559-91.26
	l0.003-0.005c-37.551-97.209-132.153-129.949-215.738-75.138c-114.358,74.996-222.607,164.869-288.117,288.352
	c-50.067,94.375-97.338,192.473-97.65,302.371c-0.442,156.231-7.379,313.175,7.222,469.041
	c7.052,75.279,55.437,153.305,141.437,149.362c98.402-4.515,198.681-8.529,289.872-53.082
	c78.746-38.473,167.643-72.992,217.926-143.489c60.262-84.49,34.201-201.803,52.529-302.295
	c16.244-89.064,9.825-177.65-5.585-265.541l5.21-3.705l24.87-3.755l0.004,0l23.175,2.593l3.282,1.313
	c-15.861,89.057-22.682,178.831-6.219,269.096c18.328,100.491-7.733,217.805,52.529,302.295
	c50.284,70.497,139.181,105.015,217.926,143.489c91.192,44.553,191.47,48.567,289.872,53.082
	c86,3.943,134.385-74.083,141.437-149.362C1501.756,1326.957,1494.82,1170.012,1494.377,1013.782z"/>
</svg>
