<?xml version="1.0" encoding="iso-8859-1"?>
<!-- Generator: Adobe Illustrator 18.0.0, SVG Export Plug-In . SVG Version: 6.00 Build 0)  -->
<!DOCTYPE svg PUBLIC "-//W3C//DTD SVG 1.1//EN" "http://www.w3.org/Graphics/SVG/1.1/DTD/svg11.dtd">
<svg version="1.1" id="Capa_1" xmlns="http://www.w3.org/2000/svg" xmlns:xlink="http://www.w3.org/1999/xlink" x="0px" y="0px"
	 viewBox="0 0 296.02 296.02" style="enable-background:new 0 0 296.02 296.02;" xml:space="preserve">
<path d="M197.474,88.883c-11.314,0-18.444,10.488-22.876,25.732l-6.88-8.026V39.61c0-5.447-8.825-9.854-19.709-9.854
	c-10.884,0-19.709,4.408-19.709,9.854v66.978l-6.88,8.027c-4.432-15.245-11.562-25.732-22.876-25.732
	C60.445,88.883,0,167.719,0,226.846c0,19.045,30.882,39.418,68.982,39.418c38.099,0,58.309-20.373,58.309-39.418
	c0-10.655,2.925-52.569-1.167-87.432l21.886-25.534l21.886,25.534c-4.092,34.863-1.167,76.777-1.167,87.432
	c0,19.045,20.21,39.418,58.309,39.418c38.099,0,68.982-20.373,68.982-39.418C296.02,167.719,235.574,88.883,197.474,88.883z
	 M44.915,169.288c-4.138-0.182-7.345-3.684-7.163-7.822c0.182-4.138,3.684-7.345,7.822-7.163c4.138,0.182,7.345,3.684,7.163,7.822
	C52.555,166.264,49.053,169.471,44.915,169.288z M91.572,121.02c-0.336,0.142-14.651,6.327-27.325,26.379
	c-1.427,2.258-3.86,3.494-6.347,3.494c-1.37,0-2.757-0.375-4-1.161c-3.502-2.213-4.546-6.846-2.333-10.347
	c15.557-24.614,33.678-31.993,34.441-32.296c3.852-1.52,8.21,0.364,9.733,4.216C97.259,115.142,95.394,119.48,91.572,121.02z"/>
<g>
</g>
<g>
</g>
<g>
</g>
<g>
</g>
<g>
</g>
<g>
</g>
<g>
</g>
<g>
</g>
<g>
</g>
<g>
</g>
<g>
</g>
<g>
</g>
<g>
</g>
<g>
</g>
<g>
</g>
</svg>
