<?xml version="1.0" encoding="UTF-8" standalone="no"?>
<!-- Created with Inkscape (http://www.inkscape.org/) -->

<svg
   xmlns:dc="http://purl.org/dc/elements/1.1/"
   xmlns:cc="http://creativecommons.org/ns#"
   xmlns:rdf="http://www.w3.org/1999/02/22-rdf-syntax-ns#"
   xmlns:svg="http://www.w3.org/2000/svg"
   xmlns="http://www.w3.org/2000/svg"
   xmlns:sodipodi="http://sodipodi.sourceforge.net/DTD/sodipodi-0.dtd"
   xmlns:inkscape="http://www.inkscape.org/namespaces/inkscape"
   id="svg2"
   sodipodi:docname="snail_silhouette.svg"
   viewBox="0 0 700 490"
   version="1.1"
   inkscape:version="0.91 r13725">
  <defs
     id="defs4650" />
  <sodipodi:namedview
     id="base"
     bordercolor="#666666"
     inkscape:pageshadow="2"
     inkscape:window-y="1"
     pagecolor="#ffffff"
     inkscape:window-height="855"
     inkscape:window-maximized="1"
     inkscape:zoom="1.3285714"
     inkscape:window-x="0"
     showgrid="false"
     borderopacity="1.0"
     inkscape:current-layer="layer1"
     inkscape:cx="350"
     inkscape:cy="245"
     inkscape:window-width="1393"
     inkscape:pageopacity="0.0"
     inkscape:document-units="px" />
  <g
     id="layer1"
     inkscape:label="Calque 1"
     inkscape:groupmode="layer"
     transform="translate(0 -562.36)">
    <path
       style="fill:#000000;fill-opacity:1"
       d="m 589.95898,43.822266 c -4.47001,1.1e-4 -8.09364,3.623741 -8.09375,8.09375 0.003,1.106543 0.23314,2.20069 0.67579,3.214843 -13.22432,10.189775 -47.06024,33.87301 -61.29305,75.770071 -17.5526,55.60582 -41.27239,81.81331 -61.70109,126.45845 -4.05409,-19.63145 -11.40108,-39.00852 -19.35743,-54.73633 -22.97226,-45.41078 -68.9101,-83.03262 -116.57226,-92.55664 -28.77994,-5.75091 -82.51558,9.97839 -105.14453,29.74023 -50.1055,43.75709 -80.06331,112.49828 -66.82618,179.98633 5.76615,29.39833 27.14011,54.64171 53.27735,72.13476 -51.38093,1.1614 -31.66989,32.32315 -90.83465,23.27033 -16.155402,45.98418 261.48558,70.68406 412.10809,28.46796 44.53353,-23.37368 69.26012,-72.33679 73.25585,-121.10157 8.00784,-63.93986 -11.50599,-83.18649 -3.33351,-146.97629 -0.18286,-20.79267 32.235,-76.297753 44.91359,-83.099879 1.16237,0.614151 2.45685,0.935926 3.77149,0.9375 4.47001,-1.1e-4 8.09364,-3.623741 8.09375,-8.09375 -1.1e-4,-4.470009 -3.62374,-8.09364 -8.09375,-8.09375 -3.70114,0.0048 -6.92756,2.519479 -7.83594,6.107422 -12.63295,1.666845 -48.11229,48.485007 -61.90244,47.811217 -32.84992,2.225 5.97464,-57.232759 13.30869,-71.305358 0.52151,0.104654 1.05207,0.157645 1.58398,0.158204 4.47077,9.73e-4 8.0956,-3.622975 8.09571,-8.09375 -1.1e-4,-4.470775 -3.62494,-8.094723 -8.09571,-8.09375 z"
       transform="translate(0,562.36)"
       id="path3796"
       inkscape:connector-curvature="0"
       sodipodi:nodetypes="cccccssssccccccccccccccc" />
  </g>
  <metadata
     id="metadata4648">
    <rdf:RDF>
      <cc:Work>
        <dc:format>image/svg+xml</dc:format>
        <dc:type
           rdf:resource="http://purl.org/dc/dcmitype/StillImage" />
        <cc:license
           rdf:resource="http://creativecommons.org/licenses/publicdomain/" />
        <dc:publisher>
          <cc:Agent
             rdf:about="http://openclipart.org/">
            <dc:title>Openclipart</dc:title>
          </cc:Agent>
        </dc:publisher>
        <dc:title></dc:title>
      </cc:Work>
      <cc:License
         rdf:about="http://creativecommons.org/licenses/publicdomain/">
        <cc:permits
           rdf:resource="http://creativecommons.org/ns#Reproduction" />
        <cc:permits
           rdf:resource="http://creativecommons.org/ns#Distribution" />
        <cc:permits
           rdf:resource="http://creativecommons.org/ns#DerivativeWorks" />
      </cc:License>
    </rdf:RDF>
  </metadata>
</svg>
