<svg id="visual" viewBox="0 0 960 540" width="960" height="540" xmlns="http://www.w3.org/2000/svg" xmlns:xlink="http://www.w3.org/1999/xlink" version="1.1"><path d="M0 152L14.5 141.2C29 130.3 58 108.7 87.2 102.3C116.3 96 145.7 105 174.8 111.3C204 117.7 233 121.3 262 129.5C291 137.7 320 150.3 349 150.3C378 150.3 407 137.7 436.2 142.2C465.3 146.7 494.7 168.3 523.8 162C553 155.7 582 121.3 611 102.5C640 83.7 669 80.3 698 87.7C727 95 756 113 785.2 112C814.3 111 843.7 91 872.8 91.8C902 92.7 931 114.3 945.5 125.2L960 136L960 0L945.5 0C931 0 902 0 872.8 0C843.7 0 814.3 0 785.2 0C756 0 727 0 698 0C669 0 640 0 611 0C582 0 553 0 523.8 0C494.7 0 465.3 0 436.2 0C407 0 378 0 349 0C320 0 291 0 262 0C233 0 204 0 174.8 0C145.7 0 116.3 0 87.2 0C58 0 29 0 14.5 0L0 0Z" fill="#6198ff"></path><path d="M0 293L14.5 276.7C29 260.3 58 227.7 87.2 212.3C116.3 197 145.7 199 174.8 202.7C204 206.3 233 211.7 262 223.3C291 235 320 253 349 250.3C378 247.7 407 224.3 436.2 221.7C465.3 219 494.7 237 523.8 231.5C553 226 582 197 611 189.8C640 182.7 669 197.3 698 199.2C727 201 756 190 785.2 183.7C814.3 177.3 843.7 175.7 872.8 178.3C902 181 931 188 945.5 191.5L960 195L960 134L945.5 123.2C931 112.3 902 90.7 872.8 89.8C843.7 89 814.3 109 785.2 110C756 111 727 93 698 85.7C669 78.3 640 81.7 611 100.5C582 119.3 553 153.7 523.8 160C494.7 166.3 465.3 144.7 436.2 140.2C407 135.7 378 148.3 349 148.3C320 148.3 291 135.7 262 127.5C233 119.3 204 115.7 174.8 109.3C145.7 103 116.3 94 87.2 100.3C58 106.7 29 128.3 14.5 139.2L0 150Z" fill="#3c80ff"></path><path d="M0 352L14.5 334.8C29 317.7 58 283.3 87.2 269C116.3 254.7 145.7 260.3 174.8 269.3C204 278.3 233 290.7 262 302.3C291 314 320 325 349 322.3C378 319.7 407 303.3 436.2 303.3C465.3 303.3 494.7 319.7 523.8 313.3C553 307 582 278 611 269C640 260 669 271 698 270.2C727 269.3 756 256.7 785.2 252.2C814.3 247.7 843.7 251.3 872.8 254C902 256.7 931 258.3 945.5 259.2L960 260L960 193L945.5 189.5C931 186 902 179 872.8 176.3C843.7 173.7 814.3 175.3 785.2 181.7C756 188 727 199 698 197.2C669 195.3 640 180.7 611 187.8C582 195 553 224 523.8 229.5C494.7 235 465.3 217 436.2 219.7C407 222.3 378 245.7 349 248.3C320 251 291 233 262 221.3C233 209.7 204 204.3 174.8 200.7C145.7 197 116.3 195 87.2 210.3C58 225.7 29 258.3 14.5 274.7L0 291Z" fill="#0066ff"></path><path d="M0 455L14.5 450.5C29 446 58 437 87.2 434.2C116.3 431.3 145.7 434.7 174.8 437.3C204 440 233 442 262 452.8C291 463.7 320 483.3 349 483.3C378 483.3 407 463.7 436.2 460.2C465.3 456.7 494.7 469.3 523.8 473.8C553 478.3 582 474.7 611 473.7C640 472.7 669 474.3 698 468C727 461.7 756 447.3 785.2 442.8C814.3 438.3 843.7 443.7 872.8 448.2C902 452.7 931 456.3 945.5 458.2L960 460L960 258L945.5 257.2C931 256.3 902 254.7 872.8 252C843.7 249.3 814.3 245.7 785.2 250.2C756 254.7 727 267.3 698 268.2C669 269 640 258 611 267C582 276 553 305 523.8 311.3C494.7 317.7 465.3 301.3 436.2 301.3C407 301.3 378 317.7 349 320.3C320 323 291 312 262 300.3C233 288.7 204 276.3 174.8 267.3C145.7 258.3 116.3 252.7 87.2 267C58 281.3 29 315.7 14.5 332.8L0 350Z" fill="#0059dd"></path><path d="M0 541L14.5 541C29 541 58 541 87.2 541C116.3 541 145.7 541 174.8 541C204 541 233 541 262 541C291 541 320 541 349 541C378 541 407 541 436.2 541C465.3 541 494.7 541 523.8 541C553 541 582 541 611 541C640 541 669 541 698 541C727 541 756 541 785.2 541C814.3 541 843.7 541 872.8 541C902 541 931 541 945.5 541L960 541L960 458L945.5 456.2C931 454.3 902 450.7 872.8 446.2C843.7 441.7 814.3 436.3 785.2 440.8C756 445.3 727 459.7 698 466C669 472.3 640 470.7 611 471.7C582 472.7 553 476.3 523.8 471.8C494.7 467.3 465.3 454.7 436.2 458.2C407 461.7 378 481.3 349 481.3C320 481.3 291 461.7 262 450.8C233 440 204 438 174.8 435.3C145.7 432.7 116.3 429.3 87.2 432.2C58 435 29 444 14.5 448.5L0 453Z" fill="#004cbb"></path></svg>