<svg id="visual" viewBox="0 0 960 540" width="960" height="540" xmlns="http://www.w3.org/2000/svg" xmlns:xlink="http://www.w3.org/1999/xlink" version="1.1"><path d="M0 93L32 88.5C64 84 128 75 192 65C256 55 320 44 384 67.3C448 90.7 512 148.3 576 183.5C640 218.7 704 231.3 768 235.8C832 240.3 896 236.7 928 234.8L960 233L960 0L928 0C896 0 832 0 768 0C704 0 640 0 576 0C512 0 448 0 384 0C320 0 256 0 192 0C128 0 64 0 32 0L0 0Z" fill="#0066ff"></path><path d="M0 233L32 227.7C64 222.3 128 211.7 192 198.2C256 184.7 320 168.3 384 184.5C448 200.7 512 249.3 576 275.5C640 301.7 704 305.3 768 305.3C832 305.3 896 301.7 928 299.8L960 298L960 231L928 232.8C896 234.7 832 238.3 768 233.8C704 229.3 640 216.7 576 181.5C512 146.3 448 88.7 384 65.3C320 42 256 53 192 63C128 73 64 82 32 86.5L0 91Z" fill="#0c4cdb"></path><path d="M0 368L32 363.5C64 359 128 350 192 342.8C256 335.7 320 330.3 384 352.8C448 375.3 512 425.7 576 431C640 436.3 704 396.7 768 376C832 355.3 896 353.7 928 352.8L960 352L960 296L928 297.8C896 299.7 832 303.3 768 303.3C704 303.3 640 299.7 576 273.5C512 247.3 448 198.7 384 182.5C320 166.3 256 182.7 192 196.2C128 209.7 64 220.3 32 225.7L0 231Z" fill="#0a34b9"></path><path d="M0 541L32 541C64 541 128 541 192 541C256 541 320 541 384 541C448 541 512 541 576 541C640 541 704 541 768 541C832 541 896 541 928 541L960 541L960 350L928 350.8C896 351.7 832 353.3 768 374C704 394.7 640 434.3 576 429C512 423.7 448 373.3 384 350.8C320 328.3 256 333.7 192 340.8C128 348 64 357 32 361.5L0 366Z" fill="#001b98"></path></svg>