<!DOCTYPE svg PUBLIC "-//W3C//DTD SVG 20010904//EN" "http://www.w3.org/TR/2001/REC-SVG-20010904/DTD/svg10.dtd">
<svg version="1.0" xmlns="http://www.w3.org/2000/svg" width="927px" height="410px" viewBox="0 0 9270 4100" preserveAspectRatio="xMidYMid meet">
<g id="layer1" fill="#000000" stroke="none">
 <path d="M1657 3893 c-4 -3 -7 -21 -7 -39 0 -18 -4 -36 -10 -39 -5 -3 -10 -30 -10 -60 0 -30 -4 -57 -10 -60 -5 -3 -10 -24 -10 -45 0 -22 -9 -55 -20 -75 -11 -20 -20 -44 -20 -55 0 -10 -4 -22 -10 -25 -5 -3 -10 -15 -10 -25 0 -11 -9 -35 -20 -55 -11 -20 -20 -44 -20 -55 0 -10 -4 -22 -10 -25 -5 -3 -10 -21 -10 -40 0 -19 -4 -37 -10 -40 -5 -3 -10 -21 -10 -40 0 -19 -4 -37 -10 -40 -5 -3 -10 -21 -10 -40 0 -19 -4 -37 -10 -40 -5 -3 -10 -22 -10 -41 l0 -34 -49 0 c-28 0 -53 5 -56 10 -3 6 -17 10 -30 10 -13 0 -27 5 -30 10 -3 6 -17 10 -30 10 -13 0 -27 5 -30 10 -3 6 -21 10 -40 10 -19 0 -37 5 -40 10 -3 6 -33 10 -65 10 -32 0 -62 -4 -65 -10 -3 -5 -39 -10 -80 -10 -41 0 -77 -4 -80 -10 -3 -5 -44 -10 -90 -10 -46 0 -87 -4 -90 -10 -3 -5 -25 -10 -49 -10 -28 0 -49 -7 -64 -20 -12 -11 -25 -20 -30 -20 -5 0 -23 -13 -40 -30 -18 -16 -36 -30 -40 -30 -5 0 -23 -13 -40 -30 -18 -16 -36 -30 -41 -30 -10 0 -61 -50 -61 -60 0 -9 179 -100 196 -100 6 0 46 -18 89 -40 43 -22 83 -40 90 -40 7 0 47 -18 90 -40 l78 -40 338 0 c214 0 340 -4 344 -10 3 -5 26 -10 50 -10 24 0 47 -4 50 -10 3 -5 15 -10 26 -10 21 0 49 -22 49 -38 0 -5 14 -23 30 -40 17 -18 30 -36 30 -40 0 -5 14 -23 30 -40 17 -18 30 -36 30 -40 0 -5 14 -23 30 -40 17 -18 30 -36 30 -40 0 -5 14 -23 30 -40 17 -18 30 -36 30 -40 0 -5 14 -23 30 -40 17 -18 30 -36 30 -40 0 -5 12 -22 28 -38 15 -16 33 -42 41 -57 8 -15 18 -27 23 -27 4 0 8 -6 8 -13 0 -7 8 -22 18 -33 9 -10 23 -31 31 -46 8 -16 18 -28 23 -28 4 0 8 -6 8 -14 0 -7 12 -26 28 -42 15 -16 33 -42 41 -57 8 -15 18 -27 23 -27 4 0 8 -6 8 -13 0 -7 8 -22 18 -33 9 -10 23 -31 31 -46 8 -16 18 -28 23 -28 4 0 8 -6 8 -13 0 -7 8 -22 18 -33 9 -10 23 -31 31 -46 7 -14 34 -37 60 -49 25 -13 52 -29 59 -36 7 -7 30 -20 50 -30 20 -10 46 -25 56 -35 11 -10 26 -18 33 -18 7 0 13 -4 13 -8 0 -5 21 -20 48 -33 26 -13 49 -27 52 -31 9 -12 161 -88 176 -88 7 0 29 -9 49 -20 20 -11 44 -20 55 -20 10 0 22 -4 25 -10 3 -5 17 -10 30 -10 13 0 27 -5 30 -10 3 -6 17 -10 30 -10 13 0 27 -4 30 -10 3 -5 15 -10 25 -10 11 0 35 -9 55 -20 20 -11 44 -20 55 -20 10 0 22 -4 25 -10 3 -5 21 -10 40 -10 19 0 37 -4 40 -10 3 -5 26 -10 50 -10 24 0 47 -4 50 -10 3 -5 26 -10 50 -10 24 0 47 -4 50 -10 3 -5 26 -10 50 -10 24 0 47 -4 50 -10 3 -5 30 -10 60 -10 30 0 57 -4 60 -10 3 -5 26 -10 50 -10 24 0 47 -4 50 -10 3 -5 26 -10 50 -10 24 0 47 -4 50 -10 3 -5 26 -10 50 -10 24 0 47 -5 50 -10 3 -6 15 -10 26 -10 24 0 54 -17 92 -52 17 -16 34 -28 39 -28 20 0 58 -58 58 -89 0 -11 5 -23 10 -26 6 -3 10 -17 10 -30 0 -13 5 -27 10 -30 6 -3 10 -16 10 -29 0 -12 4 -26 9 -31 5 -6 11 -26 15 -46 5 -27 2 -41 -13 -57 -10 -12 -23 -22 -29 -22 -5 0 -32 -21 -59 -48 -27 -26 -60 -53 -75 -61 -16 -8 -39 -39 -59 -77 l-32 -65 19 -36 c25 -48 48 -62 74 -45 11 6 29 12 39 12 11 0 23 5 26 10 3 6 17 10 30 10 13 0 27 4 30 10 3 5 21 10 40 10 19 0 37 5 40 10 3 6 17 10 30 10 13 0 27 4 30 10 3 5 15 10 25 10 31 0 88 37 140 90 27 28 53 50 59 50 18 0 169 158 187 196 10 22 24 45 31 52 7 7 20 30 30 50 9 20 23 43 30 50 7 7 20 30 30 50 9 20 23 43 30 50 7 7 20 30 30 50 9 20 22 42 28 47 17 17 179 95 197 95 9 0 20 5 23 10 3 6 15 10 25 10 11 0 35 9 55 20 20 11 44 20 55 20 10 0 22 5 25 10 3 6 21 10 40 10 19 0 37 5 40 10 3 6 30 10 60 10 30 0 57 5 60 10 3 6 30 10 60 10 30 0 57 4 60 10 3 5 30 10 60 10 30 0 57 5 60 10 3 5 30 10 60 10 30 0 57 5 60 10 3 6 30 10 60 10 30 0 57 5 60 10 3 6 30 10 60 10 30 0 57 5 60 10 3 6 30 10 60 10 30 0 57 5 60 10 3 6 21 10 40 10 19 0 37 5 40 10 3 6 17 10 30 10 13 0 27 5 30 10 3 6 15 10 25 10 11 0 35 9 55 20 20 11 44 20 55 20 10 0 22 5 25 10 3 6 17 10 30 10 13 0 27 4 30 10 3 5 17 10 30 10 13 0 27 5 30 10 3 6 15 10 25 10 11 0 35 9 55 20 20 11 44 20 55 20 10 0 22 5 25 10 3 6 17 10 30 10 13 0 27 5 30 10 3 6 17 10 30 10 13 0 27 5 30 10 3 6 15 10 25 10 11 0 35 9 55 20 20 11 44 20 55 20 10 0 22 5 25 10 3 6 17 10 30 10 13 0 27 5 30 10 3 5 17 10 30 10 13 0 27 4 30 10 3 5 15 10 25 10 11 0 35 9 55 20 20 11 44 20 55 20 10 0 22 5 25 10 3 6 17 10 30 10 13 0 27 5 30 10 3 6 15 10 25 10 11 0 35 9 55 20 20 11 44 20 55 20 10 0 22 5 25 10 3 6 17 10 30 10 13 0 27 5 30 10 3 6 15 10 25 10 11 0 35 9 55 20 20 11 43 20 53 21 25 1 73 31 86 54 6 10 17 25 23 33 7 7 20 30 30 50 10 20 25 46 35 56 10 11 18 23 18 28 0 25 78 98 106 98 12 0 26 5 29 10 3 6 17 10 30 10 13 0 27 5 30 10 3 6 17 10 30 10 13 0 27 5 30 10 3 6 17 10 30 10 13 0 27 5 30 10 3 5 17 10 30 10 13 0 27 5 30 10 3 6 17 10 30 10 13 0 27 5 30 10 3 6 14 10 24 10 21 0 115 46 130 64 9 10 6 24 -10 54 -27 50 -62 71 -89 54 -11 -7 -33 -12 -49 -12 -17 0 -33 -4 -36 -10 -3 -5 -21 -10 -40 -10 -19 0 -37 -5 -40 -10 -3 -6 -21 -10 -40 -10 -19 0 -37 -4 -40 -10 -3 -5 -21 -10 -40 -10 -19 0 -37 -4 -40 -10 -3 -5 -29 -10 -56 -10 -31 0 -48 4 -44 10 3 6 19 10 35 10 16 0 32 5 35 10 3 6 21 10 40 10 19 0 37 5 40 10 3 6 21 10 40 10 19 0 37 5 40 10 3 6 21 10 40 10 19 0 37 5 40 10 3 6 21 10 39 10 17 0 36 4 42 9 5 5 20 11 34 13 21 3 25 8 25 38 0 33 -2 35 -39 38 -21 2 -43 -1 -49 -7 -6 -6 -44 -11 -83 -11 -40 0 -76 -4 -79 -10 -3 -6 -39 -10 -80 -10 -41 0 -77 -4 -80 -10 -8 -13 -282 -13 -290 0 -3 6 -44 10 -90 10 -46 0 -87 5 -90 10 -3 6 -48 10 -100 10 -52 0 -97 4 -100 10 -3 6 -39 10 -80 10 -41 0 -77 4 -80 10 -3 6 -39 10 -80 10 -41 0 -77 4 -80 10 -3 6 -35 10 -70 10 -35 0 -67 4 -70 10 -3 5 -39 10 -80 10 -41 0 -77 4 -80 10 -3 6 -39 10 -80 10 -41 0 -77 4 -80 10 -3 6 -39 10 -80 10 -41 0 -77 4 -80 10 -3 6 -44 10 -90 10 -46 0 -87 4 -90 10 -3 5 -44 10 -90 10 -46 0 -87 5 -90 10 -3 6 -24 10 -46 10 -32 0 -46 7 -74 35 -19 19 -35 39 -35 44 0 13 -128 141 -141 141 -5 0 -32 22 -60 50 -28 28 -57 50 -65 50 -8 0 -14 4 -14 8 0 14 -81 52 -110 52 -16 0 -32 5 -35 10 -3 6 -17 10 -30 10 -13 0 -27 5 -30 10 -3 6 -21 10 -40 10 -19 0 -37 5 -40 10 -3 6 -17 10 -30 10 -13 0 -27 5 -30 10 -3 6 -21 10 -40 10 -19 0 -37 5 -40 10 -3 6 -17 10 -30 10 -13 0 -27 5 -30 10 -3 6 -21 10 -40 10 -19 0 -37 5 -40 10 -3 6 -26 10 -50 10 -24 0 -47 5 -50 10 -3 6 -35 10 -70 10 -35 0 -67 4 -70 10 -8 13 -122 13 -130 0 -3 -5 -22 -10 -41 -10 -45 0 -53 -21 -25 -72 11 -22 21 -47 22 -56 2 -47 36 -77 155 -137 65 -33 124 -65 131 -71 7 -6 56 -33 110 -60 98 -48 123 -65 123 -81 0 -5 9 -19 21 -32 27 -28 18 -51 -20 -51 -16 0 -33 -4 -36 -10 -3 -5 -21 -10 -40 -10 -19 0 -37 -4 -40 -10 -3 -5 -21 -10 -40 -10 -19 0 -37 -4 -40 -10 -3 -5 -21 -10 -40 -10 -19 0 -37 -4 -40 -10 -3 -5 -26 -10 -50 -10 -24 0 -47 -4 -50 -10 -3 -6 -35 -10 -70 -10 -35 0 -67 -4 -70 -10 -3 -5 -39 -10 -80 -10 -41 0 -77 -4 -80 -10 -3 -5 -35 -10 -70 -10 -35 0 -67 -4 -70 -10 -3 -5 -30 -10 -60 -10 -30 0 -57 -4 -60 -10 -3 -5 -30 -10 -60 -10 -30 0 -57 -4 -60 -10 -3 -5 -30 -10 -60 -10 -30 0 -57 -4 -60 -10 -3 -5 -46 -10 -95 -10 -49 0 -92 5 -95 10 -4 6 -58 10 -130 10 -72 0 -126 4 -130 10 -4 6 -58 10 -130 10 -72 0 -126 4 -130 10 -3 6 -39 10 -80 10 -41 0 -77 5 -80 10 -3 6 -21 10 -40 10 -19 0 -37 4 -40 10 -3 6 -21 10 -40 10 -19 0 -37 5 -40 10 -3 6 -21 10 -40 10 -19 0 -37 5 -40 10 -3 6 -21 10 -40 10 -19 0 -37 5 -40 10 -3 6 -21 10 -40 10 -19 0 -37 5 -40 10 -3 6 -21 10 -40 10 -19 0 -37 5 -40 10 -3 6 -17 10 -30 10 -13 0 -27 5 -30 10 -3 6 -17 10 -30 10 -13 0 -27 5 -30 10 -3 6 -15 10 -25 10 -11 0 -35 9 -55 20 -20 11 -44 20 -55 20 -10 0 -22 5 -25 10 -3 6 -17 10 -30 10 -13 0 -27 5 -30 10 -3 6 -17 10 -30 10 -13 0 -27 5 -30 10 -3 6 -14 10 -23 10 -19 0 -340 158 -359 177 -7 6 -13 34 -13 62 0 27 -4 53 -10 56 -5 3 -10 39 -10 80 0 41 -4 77 -10 80 -5 3 -10 17 -10 30 0 13 -4 27 -10 30 -5 3 -10 17 -10 30 0 13 -4 27 -10 30 -5 3 -10 17 -10 30 0 13 -4 27 -10 30 -5 3 -10 15 -10 25 0 11 -9 35 -20 55 -11 20 -20 44 -20 55 0 10 -4 22 -10 25 -5 3 -10 17 -10 30 0 13 -4 27 -10 30 -5 3 -10 17 -10 30 0 13 -4 27 -10 30 -5 3 -10 15 -10 25 0 31 -38 90 -87 137 -26 24 -50 43 -55 43 -4 0 -27 18 -49 40 -42 41 -50 45 -62 33z m6568 -1663 c-3 -5 -15 -10 -26 -10 -10 0 -19 5 -19 10 0 6 12 10 26 10 14 0 23 -4 19 -10z m-525 -320 c0 -5 -4 -10 -10 -10 -5 0 -10 5 -10 10 0 6 5 10 10 10 6 0 10 -4 10 -10z"/>
 </g>

</svg>